<?xml version="1.0" encoding="utf-8"?>
<svg version="1.1" xmlns:xlink="http://www.w3.org/1999/xlink" width="236px" height="127px" xmlns="http://www.w3.org/2000/svg">
  <defs>
    <filter x="17px" y="-3px" width="236px" height="127px" filterUnits="userSpaceOnUse" id="filter990">
      <feOffset dx="4" dy="-10" in="SourceAlpha" result="shadowOffsetInner" />
      <feGaussianBlur stdDeviation="2.5" in="shadowOffsetInner" result="shadowGaussian" />
      <feComposite in2="shadowGaussian" operator="atop" in="SourceAlpha" result="shadowComposite" />
      <feColorMatrix type="matrix" values="0 0 0 0 0.6  0 0 0 0 0.6  0 0 0 0 0.6  0 0 0 0.34901960784313724 0  " in="shadowComposite" />
    </filter>
    <g id="widget991">
      <path d="M 18.5 102.65031136669445  C 18.5 102.65031136669445  18.5 17  18.5 17  C 18.5 14.51471862576143  20.51471862576143 12.5  23 12.5  C 23 12.5  239 12.5  239 12.5  C 241.48528137423858 12.5  243.5 14.51471862576143  243.5 17  C 243.5 17  243.5 102.65031136669445  243.5 102.65031136669445  C 243.5 105.13559274093302  241.48528137423858 107.15031136669445  239 107.15031136669445  C 239 107.15031136669445  145.06503696168335 107.15031136669445  145.06503696168335 107.15031136669445  C 145.06503696168335 107.15031136669445  131.4063253359239 122.6414726508807  131.4063253359239 122.6414726508807  C 131.4063253359239 122.6414726508807  118.86261057757481 107.15031136669445  118.86261057757481 107.15031136669445  C 118.86261057757481 107.15031136669445  23 107.15031136669445  23 107.15031136669445  C 20.51471862576143 107.15031136669445  18.5 105.13559274093302  18.5 102.65031136669445  Z " fill-rule="nonzero" fill="#ffffff" stroke="none" />
      <path d="M 18 102.65031136669445  C 18 102.65031136669445  18 17  18 17  C 18 14.238576250846034  20.238576250846034 12  23 12  C 23 12  239 12  239 12  C 241.76142374915398 12  244 14.238576250846034  244 17  C 244 17  244 102.65031136669445  244 102.65031136669445  C 244 105.41173511584842  241.76142374915398 107.65031136669445  239 107.65031136669445  C 239 107.65031136669445  145.29078014184552 107.65031136669444  145.29078014184552 107.65031136669444  C 145.29078014184552 107.65031136669444  131.3900709219858 123.41593658740031  131.3900709219858 123.41593658740031  C 131.3900709219858 123.41593658740031  118.6241134751773 107.65031136669444  118.6241134751773 107.65031136669444  C 118.6241134751773 107.65031136669444  23 107.65031136669445  23 107.65031136669445  C 20.238576250846034 107.65031136669445  18 105.41173511584842  18 102.65031136669445  Z M 19 102.65031136669445  C 19 104.85945036601763  20.790861000676827 106.65031136669445  23 106.65031136669445  C 23 106.65031136669445  119.10110767997224 106.65031136669445  119.10110767997224 106.65031136669445  C 119.10110767997224 106.65031136669445  131.422579749862 121.86700871436109  131.422579749862 121.86700871436109  C 131.422579749862 121.86700871436109  144.83929378152118 106.65031136669445  144.83929378152118 106.65031136669445  C 144.83929378152118 106.65031136669445  239 106.65031136669445  239 106.65031136669445  C 241.2091389993232 106.65031136669445  243 104.85945036601763  243 102.65031136669445  C 243 102.65031136669445  243 17  243 17  C 243 14.790861000676827  241.2091389993232 13  239 13  C 239 13  23 13  23 13  C 20.790861000676827 13  19 14.790861000676827  19 17  C 19 17  19 102.65031136669445  19 102.65031136669445  Z " fill-rule="nonzero" fill="#e4e4e4" stroke="none" />
    </g>
  </defs>
  <g transform="matrix(1 0 0 1 -17 3 )">
    <use xlink:href="#widget991" filter="url(#filter990)" />
    <use xlink:href="#widget991" />
  </g>
</svg>