<?xml version="1.0" encoding="utf-8"?>
<svg version="1.1" xmlns:xlink="http://www.w3.org/1999/xlink" width="236px" height="140px" xmlns="http://www.w3.org/2000/svg">
  <defs>
    <filter x="17px" y="-15px" width="236px" height="140px" filterUnits="userSpaceOnUse" id="filter992">
      <feOffset dx="4" dy="-10" in="SourceAlpha" result="shadowOffsetInner" />
      <feGaussianBlur stdDeviation="2.5" in="shadowOffsetInner" result="shadowGaussian" />
      <feComposite in2="shadowGaussian" operator="atop" in="SourceAlpha" result="shadowComposite" />
      <feColorMatrix type="matrix" values="0 0 0 0 0.6  0 0 0 0 0.6  0 0 0 0 0.6  0 0 0 0.34901960784313724 0  " in="shadowComposite" />
    </filter>
    <g id="widget993">
      <path d="M 18.5 101.75257965032861  C 18.5 101.75257965032861  18.5 5  18.5 5  C 18.5 2.51471862576143  20.51471862576143 0.5  23 0.5  C 23 0.5  239 0.5  239 0.5  C 241.48528137423858 0.5  243.5 2.51471862576143  243.5 4.999999999999999  C 243.5 4.999999999999999  243.5 101.75257965032863  243.5 101.75257965032863  C 243.5 104.2378610245672  241.48528137423858 106.25257965032863  239 106.25257965032863  C 239 106.25257965032863  145.04858154052224 106.25257965032863  145.04858154052224 106.25257965032863  C 145.04858154052224 106.25257965032863  131.40703641400114 123.52009274329492  131.40703641400114 123.52009274329492  C 131.40703641400114 123.52009274329492  118.8790868080135 106.25257965032863  118.8790868080135 106.25257965032863  C 118.8790868080135 106.25257965032863  23 106.25257965032863  23 106.25257965032863  C 20.51471862576143 106.25257965032863  18.5 104.2378610245672  18.5 101.75257965032861  Z " fill-rule="nonzero" fill="#ffffff" stroke="none" />
      <path d="M 18 101.75257965032861  C 18 101.75257965032861  18 5  18 5  C 18 2.238576250846033  20.238576250846034 0  23 0  C 23 0  239 0  239 0  C 241.76142374915398 0  244 2.238576250846033  244 5  C 244 5  244 101.75257965032863  244 101.75257965032863  C 244 104.51400339948259  241.76142374915398 106.75257965032863  239 106.75257965032863  C 239 106.75257965032863  145.29078014184552 106.75257965032861  145.29078014184552 106.75257965032861  C 145.29078014184552 106.75257965032861  131.3900709219858 124.34814351272357  131.3900709219858 124.34814351272357  C 131.3900709219858 124.34814351272357  118.6241134751773 106.75257965032861  118.6241134751773 106.75257965032861  C 118.6241134751773 106.75257965032861  23 106.75257965032863  23 106.75257965032863  C 20.238576250846034 106.75257965032863  18 104.51400339948259  18 101.75257965032861  Z M 19 101.75257965032861  C 19 103.9617186496518  20.790861000676827 105.75257965032863  23 105.75257965032863  C 23 105.75257965032863  119.13406014085011 105.75257965032863  119.13406014085011 105.75257965032863  C 119.13406014085011 105.75257965032863  131.42400190601643 122.69204197386627  131.42400190601643 122.69204197386627  C 131.42400190601643 122.69204197386627  144.80638293919895 105.75257965032863  144.80638293919895 105.75257965032863  C 144.80638293919895 105.75257965032863  239 105.75257965032863  239 105.75257965032863  C 241.2091389993232 105.75257965032863  243 103.9617186496518  243 101.75257965032863  C 243 101.75257965032863  243 5  243 5  C 243 2.790861000676826  241.2091389993232 1  239 1  C 239 1  23 1  23 1  C 20.790861000676827 1  19 2.790861000676826  19 5  C 19 5  19 101.75257965032861  19 101.75257965032861  Z " fill-rule="nonzero" fill="#e4e4e4" stroke="none" />
    </g>
  </defs>
  <g transform="matrix(1 0 0 1 -17 15 )">
    <use xlink:href="#widget993" filter="url(#filter992)" />
    <use xlink:href="#widget993" />
  </g>
</svg>