<?xml version="1.0" encoding="utf-8"?>
<svg version="1.1" xmlns:xlink="http://www.w3.org/1999/xlink" width="26px" height="35px" xmlns="http://www.w3.org/2000/svg">
  <defs>
    <filter x="777px" y="656px" width="26px" height="35px" filterUnits="userSpaceOnUse" id="filter563">
      <feOffset dx="3" dy="3" in="SourceAlpha" result="shadowOffsetInner" />
      <feGaussianBlur stdDeviation="2.5" in="shadowOffsetInner" result="shadowGaussian" />
      <feComposite in2="shadowGaussian" operator="atop" in="SourceAlpha" result="shadowComposite" />
      <feColorMatrix type="matrix" values="0 0 0 0 0  0 0 0 0 0  0 0 0 0 0  0 0 0 0.3137254901960784 0  " in="shadowComposite" />
    </filter>
    <g id="widget564">
      <path d="M 15.72508591065292 1.5030060120240467  C 15.908361970217642 1.670006680026717  16 1.8620574482297898  16 2.0791583166332672  C 16 2.2962591850367393  15.908361970217642 2.4883099532398116  15.72508591065292 2.655310621242485  L 4.920962199312715 12.5  L 15.72508591065292 22.344689378757515  C 15.908361970217642 22.511690046760187  16 22.703740814963258  16 22.92084168336673  C 16 23.13794255177021  15.908361970217642 23.329993319973276  15.72508591065292 23.49699398797595  L 14.350515463917526 24.749498997995993  C 14.167239404352808 24.916499665998664  13.956471935853381 25  13.718213058419243 25  C 13.47995418098511 25  13.269186712485684 24.916499665998664  13.085910652920962 24.749498997995993  L 0.27491408934707906 13.076152304609218  C 0.09163802978235974 12.909151636606545  0 12.717100868403472  0 12.5  C 0 12.282899131596526  0.09163802978235974 12.090848363393453  0.27491408934707906 11.923847695390782  L 13.085910652920962 0.25050100200400827  C 13.269186712485684 0.08350033400133516  13.47995418098511 0  13.718213058419243 0  C 13.956471935853381 0  14.167239404352808 0.08350033400133516  14.350515463917526 0.25050100200400827  L 15.72508591065292 1.5030060120240467  Z " fill-rule="nonzero" fill="#8c8c8c" stroke="none" transform="matrix(1 0 0 1 779 658 )" />
    </g>
  </defs>
  <g transform="matrix(1 0 0 1 -777 -656 )">
    <use xlink:href="#widget564" filter="url(#filter563)" />
    <use xlink:href="#widget564" />
  </g>
</svg>