<?xml version="1.0" encoding="utf-8"?>
<svg version="1.1" xmlns:xlink="http://www.w3.org/1999/xlink" width="222px" height="125px" xmlns="http://www.w3.org/2000/svg">
  <defs>
    <filter x="23px" y="-2px" width="222px" height="125px" filterUnits="userSpaceOnUse" id="filter573">
      <feOffset dx="4" dy="-10" in="SourceAlpha" result="shadowOffsetInner" />
      <feGaussianBlur stdDeviation="2.5" in="shadowOffsetInner" result="shadowGaussian" />
      <feComposite in2="shadowGaussian" operator="atop" in="SourceAlpha" result="shadowComposite" />
      <feColorMatrix type="matrix" values="0 0 0 0 0.6  0 0 0 0 0.6  0 0 0 0 0.6  0 0 0 0.34901960784313724 0  " in="shadowComposite" />
    </filter>
    <g id="widget574">
      <path d="M 24.5 101.94227009228919  C 24.5 101.94227009228919  24.5 18  24.5 18  C 24.5 15.51471862576143  26.51471862576143 13.5  29 13.5  C 29 13.5  231 13.5  231 13.5  C 233.48528137423858 13.5  235.5 15.51471862576143  235.5 18  C 235.5 18  235.5 101.94227009228919  235.5 101.94227009228919  C 235.5 104.42755146652776  233.48528137423858 106.44227009228919  231 106.44227009228919  C 231 106.44227009228919  143.95336327212502 106.44227009228919  143.95336327212502 106.44227009228919  C 143.95336327212502 106.44227009228919  132.86839534162954 121.6960055797831  132.86839534162954 121.6960055797831  C 132.86839534162954 121.6960055797831  121.20360588540602 106.44227009228919  121.20360588540602 106.44227009228919  C 121.20360588540602 106.44227009228919  29 106.44227009228919  29 106.44227009228919  C 26.51471862576143 106.44227009228919  24.5 104.42755146652776  24.5 101.94227009228919  Z " fill-rule="nonzero" fill="#ffffff" stroke="none" />
      <path d="M 24 101.94227009228919  C 24 101.94227009228919  24 18  24 18  C 24 15.238576250846034  26.238576250846034 13  29 13  C 29 13  231 13  231 13  C 233.76142374915398 13  236 15.238576250846034  236 18  C 236 18  236 101.94227009228919  236 101.94227009228919  C 236 104.70369384144315  233.76142374915398 106.94227009228919  231 106.94227009228919  C 231 106.94227009228919  144.20809248554997 106.94227009228918  144.20809248554997 106.94227009228918  C 144.20809248554997 106.94227009228918  132.87861271676047 122.53247194831785  132.87861271676047 122.53247194831785  C 132.87861271676047 122.53247194831785  120.95652173913108 106.94227009228918  120.95652173913108 106.94227009228918  C 120.95652173913108 106.94227009228918  29 106.94227009228919  29 106.94227009228919  C 26.238576250846034 106.94227009228919  24 104.70369384144315  24 101.94227009228919  Z M 25 101.94227009228918  C 25 104.15140909161236  26.790861000676827 105.94227009228919  29 105.94227009228919  C 29 105.94227009228919  121.45069003168135 105.94227009228919  121.45069003168135 105.94227009228919  C 121.45069003168135 105.94227009228919  132.8581779664986 120.85953921124838  132.8581779664986 120.85953921124838  C 132.8581779664986 120.85953921124838  143.69863405870007 105.94227009228919  143.69863405870007 105.94227009228919  C 143.69863405870007 105.94227009228919  231 105.94227009228918  231 105.94227009228918  C 233.2091389993232 105.94227009228919  235 104.15140909161236  235 101.94227009228919  C 235 101.94227009228919  235 18  235 18  C 235 15.790861000676827  233.2091389993232 14  231 14  C 231 14  29 14  29 14  C 26.790861000676827 14  25 15.790861000676827  25 18  C 25 18  25 101.94227009228918  25 101.94227009228918  Z " fill-rule="nonzero" fill="#e4e4e4" stroke="none" />
    </g>
  </defs>
  <g transform="matrix(1 0 0 1 -23 2 )">
    <use xlink:href="#widget574" filter="url(#filter573)" />
    <use xlink:href="#widget574" />
  </g>
</svg>