<?xml version="1.0" encoding="utf-8"?>
<svg version="1.1" xmlns:xlink="http://www.w3.org/1999/xlink" width="14px" height="15px" xmlns="http://www.w3.org/2000/svg">
  <g transform="matrix(1 0 0 1 -633 -1120 )">
    <path d="M 2.0340624778761063 9.610286283185841  C 1.3015714513274337 7.633117699115046  1.6620249911504428 5.454507079646018  2.8598841946902653 3.8862252212389397  L 2.848298270442478 4.76275407079646  L 4.495443243893806 4.799995247787612  L 4.557879564247788 0.9111576371681424  L 0.9289569093805309 0.8449518849557528  L 0.8948427624778763 2.6097500707964607  L 1.6962113111504424 2.6214741384955755  C 0.03754830230088459 4.6849750234513285  -0.47870355610619486 7.612505111946904  0.502207930619469 10.261971041150444  C 1.5758404261946906 13.162665731415931  4.16787624920354 14.987472811061947  6.981967930619469 14.987472811061947  C 7.45699214300885 14.987472811061947  7.938459204955752 14.935059041150442  8.419926266902653 14.828165881858409  L 8.083283258053099 13.099913271238938  C 5.537616178407079 13.668188138495577  2.993102550088495 12.20131583761062  2.0340901607079642 9.610252209292037  Z M 13.497061769911506 4.737189823008849  C 12.241908991150444 1.348338053097345  8.912257522123895 -0.5716287610619472  5.58059575221239 0.1718176991150439  L 5.916596123893806 1.9000703097345126  C 8.462263203539823 1.3317954424778755  11.006776831858408 2.7986677433628313  11.965789221238937 5.388318982300883  C 12.698922884955753 7.366899955752211  12.337826707964602 9.547629159292033  11.138682230088499 11.115734469026547  L 11.148980902654868 10.231614026548671  L 9.501193292035401 10.198511150442474  L 9.445194877876109 14.08664256637168  L 13.074117532743365 14.146640867256636  L 13.10501355044248 12.381842681415927  L 12.309445214159293 12.370808389380528  C 13.963659196460178 10.308719893805307  14.477933709734511 7.384720778761058  13.497005745132743 4.73719688495575  Z " fill-rule="nonzero" fill="#d7d7d7" stroke="none" transform="matrix(1 0 0 1 633 1120 )" />
  </g>
</svg>