<?xml version="1.0" encoding="utf-8"?>
<svg version="1.1" xmlns:xlink="http://www.w3.org/1999/xlink" width="27px" height="34px" xmlns="http://www.w3.org/2000/svg">
  <defs>
    <filter x="1179px" y="657px" width="27px" height="34px" filterUnits="userSpaceOnUse" id="filter970">
      <feOffset dx="3" dy="3" in="SourceAlpha" result="shadowOffsetInner" />
      <feGaussianBlur stdDeviation="2.5" in="shadowOffsetInner" result="shadowGaussian" />
      <feComposite in2="shadowGaussian" operator="atop" in="SourceAlpha" result="shadowComposite" />
      <feColorMatrix type="matrix" values="0 0 0 0 0  0 0 0 0 0  0 0 0 0 0  0 0 0 0.3137254901960784 0  " in="shadowComposite" />
    </filter>
    <g id="widget971">
      <path d="M 16.707903780068726 11.446893787575151  C 16.902634593356247 11.607214428857715  17 11.791583166332664  17 12  C 17 12.208416833667332  16.902634593356247 12.392785571142284  16.707903780068726 12.553106212424849  L 3.0962199312714773 23.759519038076153  C 2.9014891179839633 23.919839679358716  2.6775486827033217 24  2.424398625429553 24  C 2.171248568155785 24  1.9473081328751434 23.919839679358716  1.7525773195876289 23.759519038076153  L 0.2920962199312715 22.557114228456914  C 0.09736540664375723 22.396793587174347  0 22.2124248496994  0 22.004008016032063  C 0 21.795591182364728  0.09736540664375723 21.61122244488978  0.2920962199312715 21.450901803607216  L 11.77147766323024 12  L 0.2920962199312715 2.5490981963927855  C 0.09736540664375723 2.3887775551102193  0 2.2044088176352696  0 1.9959919839679365  C 0 1.787575150300598  0.09736540664375723 1.6032064128256485  0.2920962199312715 1.442885771543085  L 1.7525773195876289 0.24048096192384794  C 1.9473081328751434 0.08016032064128176  2.171248568155785 0  2.424398625429553 0  C 2.6775486827033217 0  2.9014891179839633 0.08016032064128176  3.0962199312714773 0.24048096192384794  L 16.707903780068726 11.446893787575151  Z " fill-rule="nonzero" fill="#797979" stroke="none" transform="matrix(1 0 0 1 1181 659 )" />
    </g>
  </defs>
  <g transform="matrix(1 0 0 1 -1179 -657 )">
    <use xlink:href="#widget971" filter="url(#filter970)" />
    <use xlink:href="#widget971" />
  </g>
</svg>