<?xml version="1.0" encoding="utf-8"?>
<svg version="1.1" xmlns:xlink="http://www.w3.org/1999/xlink" width="62px" height="78px" xmlns="http://www.w3.org/2000/svg">
  <defs>
    <filter x="868px" y="1738px" width="62px" height="78px" filterUnits="userSpaceOnUse" id="filter226">
      <feOffset dx="5" dy="5" in="SourceAlpha" result="shadowOffsetInner" />
      <feGaussianBlur stdDeviation="1" in="shadowOffsetInner" result="shadowGaussian" />
      <feComposite in2="shadowGaussian" operator="atop" in="SourceAlpha" result="shadowComposite" />
      <feColorMatrix type="matrix" values="0 0 0 0 0  0 0 0 0 0  0 0 0 0 0  0 0 0 0.3137254901960784 0  " in="shadowComposite" />
    </filter>
    <g id="widget227">
      <path d="M 54.726486510620134 43.365648676757814  C 54.726486510620134 61.1751351669922  44.52008446807862 64.54091894140626  44.52008446807861 64.54091894140626  C 44.52008446807861 64.54091894140626  45.27912165954589 59.41164867675781  40.60133446807862 53.144459470703126  C 45.15026181915283 38.75640543164063  45.37267735107423 30.54727026464844  45.37267735107423 30.54727026464844  C 45.37267735107423 30.54727026464844  54.726486446838386 32.9689459609375  54.726486510620134 43.365648676757814  Z M 36.93677363830567 58  L 18.737533787231445 58  C 18.737533787231445 58.28908105859375  12.065067574462894 40.527567548828124  12.065067574462894 31.126783774414065  C 12.065067574462894 26.897486490234378  12.485185829772957 25.805621587890627  13.141841212768558 23  L 41.68516893615723 23  C 42.34711992553712 25.807540529296876  42.77253378723145 26.901324303710943  42.77253378723145 31.128702715820317  C 42.77253378723145 40.38940543164063  36.93677363830567 58.2890811279297  36.93677363830567 58  Z M 27.40644424468995 25.790270264648445  L 27.40467908508301 25.79027026464844  C 24.195540595703132 25.79027026464844  21.59186658508301 28.724297284179688  21.59186658508301 32.343378412109374  C 21.59186658508301 35.96245947070312  24.195540595703132 38.89456761816406  27.40644424468995 38.89456754882813  C 30.61734789367676 38.8945674794922  33.21925674468995 35.96245947070312  33.21925674468995 32.34337841210938  C 33.21925674468995 28.72429735351563  30.6173479574585 25.79027033398438  27.40644424468995 25.790270264648445  Z M 26.154915531921386 3.2026756962890635  L 26.154915531921393 3.1988378134765636  L 26.154915531921393 1.4008107939453125  L 28.417905382995613 1.4008107939453125  L 28.417905382995613 3.419513509765625  C 31.00392735107422 5.541837813476563  38.004721287231455 6.9503243037109375  41.169729702148445 20  L 13.651984776611327 20  C 16.711081063842773 7.3091621171875  23.37295606384277 5.530324303710938  26.154915531921386 3.2026756962890635  Z M 11.152457797851563 64.54091894140626  L 11.154222957458495 64.54091894140626  C 11.154222957458495 64.54091894140626  0.1270016702270499 61.175135166992185  0.1270016702270499 43.36756754882813  C 0.1270016702270499 32.96702701953125  9.480810765991208 30.54727026464844  9.480810829772947 30.54727026464844  C 9.480810893554686 30.54727026464844  9.546123329772946 39.903918941406246  15.071207797851562 53.144459470703126  C 10.39518582977295 59.41164867675781  11.152457797851563 64.54091894140626  11.152457797851563 64.54091894140626  Z M 31.664113180847163 65.85537841210936  L 31.665878404235833 65.85537841210937  L 29.768285457458493 63.71962158789063  L 27.745363180847168 70.84264867675782  L 25.3446875 63.71962158789063  L 23.703049010620113 67.4231351669922  L 21.300608106384274 60  L 34.31897803192138 60  L 31.664113180847163 65.85537841210936  Z " fill-rule="nonzero" fill="#cccccc" stroke="none" transform="matrix(1 0 0 1 868 1738 )" />
    </g>
  </defs>
  <g transform="matrix(1 0 0 1 -868 -1738 )">
    <use xlink:href="#widget227" filter="url(#filter226)" />
    <use xlink:href="#widget227" />
  </g>
</svg>