<?xml version="1.0" encoding="utf-8"?>
<svg version="1.1" xmlns:xlink="http://www.w3.org/1999/xlink" width="25px" height="20px" xmlns="http://www.w3.org/2000/svg">
  <g transform="matrix(1 0 0 1 -536 -29 )">
    <path d="M 9.850260416666666 9.092548076923077  C 10.58376736111111 8.415464743589743  11.46701388888889 8.076923076923075  12.5 8.076923076923077  C 13.532986111111114 8.076923076923075  14.41623263888889 8.415464743589743  15.149739583333332 9.092548076923077  C 15.88324652777778 9.769631410256409  16.25 10.584935897435896  16.25 11.538461538461537  C 16.25 12.491987179487179  15.88324652777778 13.307291666666664  15.149739583333332 13.984375  C 14.41623263888889 14.661458333333332  13.532986111111114 15  12.5 15  C 11.46701388888889 15  10.58376736111111 14.661458333333332  9.850260416666666 13.984375  C 9.116753472222223 13.307291666666664  8.75 12.491987179487179  8.75 11.538461538461537  C 8.75 10.584935897435896  9.116753472222223 9.769631410256409  9.850260416666666 9.092548076923077  Z M 18.75 3.076923076923077  L 21.666666666666668 3.076923076923077  C 22.586805555555557 3.076923076923077  23.372395833333336 3.377403846153846  24.0234375 3.9783653846153855  C 24.674479166666668 4.579326923076923  25.000000000000007 5.304487179487179  25 6.153846153846154  L 25 16.923076923076923  C 25.000000000000007 17.772435897435898  24.674479166666668 18.497596153846153  24.0234375 19.098557692307693  C 23.372395833333336 19.69951923076923  22.586805555555557 20  21.666666666666668 20  L 3.3333333333333335 20  C 2.4131944444444446 20  1.6276041666666667 19.69951923076923  0.9765625 19.098557692307693  C 0.32552083333333337 18.497596153846153  0 17.772435897435898  0 16.923076923076923  L 0 6.153846153846154  C 0 5.304487179487179  0.32552083333333337 4.579326923076923  0.9765625 3.9783653846153855  C 1.6276041666666667 3.377403846153846  2.4131944444444446 3.076923076923077  3.3333333333333335 3.076923076923077  L 6.25 3.076923076923077  L 6.9140625 1.4423076923076916  C 7.078993055555556 1.0496794871794868  7.380642361111112 0.7111378205128194  7.819010416666666 0.4266826923076916  C 8.257378472222223 0.1422275641025661  8.706597222222223 0  9.166666666666666 0  L 15.833333333333332 0  C 16.29340277777778 0  16.74262152777778 0.1422275641025661  17.180989583333332 0.4266826923076916  C 17.619357638888893 0.7111378205128194  17.921006944444446 1.0496794871794868  18.0859375 1.4423076923076916  L 18.75 3.076923076923077  Z M 8.37890625 15.342548076923077  C 9.520399305555555 16.396233974358974  10.894097222222223 16.923076923076923  12.5 16.923076923076923  C 14.105902777777779 16.923076923076923  15.479600694444445 16.396233974358974  16.62109375 15.342548076923077  C 17.762586805555554 14.288862179487179  18.333333333333332 13.020833333333332  18.333333333333332 11.538461538461537  C 18.333333333333332 10.056089743589745  17.762586805555554 8.788060897435896  16.62109375 7.734375  C 15.479600694444445 6.680689102564101  14.105902777777779 6.153846153846154  12.5 6.153846153846154  C 10.894097222222223 6.153846153846154  9.520399305555555 6.680689102564101  8.37890625 7.734375  C 7.237413194444445 8.788060897435896  6.666666666666667 10.056089743589745  6.666666666666667 11.538461538461537  C 6.666666666666667 13.020833333333332  7.237413194444445 14.288862179487179  8.37890625 15.342548076923077  Z " fill-rule="nonzero" fill="#fff278" stroke="none" transform="matrix(1 0 0 1 536 29 )" />
  </g>
</svg>